{"glyphs":{":":{"x_min":0,"x_max":303,"ha":303,"o":"m 36 73 q 36 123 60 142 q 85 161 151 161 q 205 161 226 153 q 248 145 257 121 q 262 111 265 96 q 268 81 268 70 q 268 39 252 16 q 237 -6 222 -8 q 207 -11 189 -12 q 171 -14 151 -14 q 91 -14 68 9 q 55 21 36 73 z m 36 431 q 36 481 60 500 q 85 518 151 518 q 218 518 242 500 q 267 481 267 431 q 267 381 242 362 q 218 344 151 344 q 85 344 60 362 q 36 381 36 431 z"},"$":{"x_min":0,"x_max":573,"ha":573,"o":"m 4 96 l 86 248 l 92 223 q 115 146 154 107 q 193 68 260 51 l 278 48 l 278 248 l 243 264 q 144 314 100 362 q 57 409 49 468 q 47 478 47 489 q 47 500 47 506 q 47 601 102 662 q 156 722 245 722 l 278 724 l 278 795 l 314 795 l 314 723 q 372 723 415 713 q 458 703 511 671 l 542 652 l 459 500 q 457 500 456 501 q 452 518 451 523 l 432 565 q 408 615 380 639 q 353 663 314 669 l 314 469 l 354 449 q 403 423 434 404 q 465 385 485 369 q 519 341 538 301 q 556 261 556 217 q 556 171 536 128 q 517 86 477 50 q 407 -11 314 -11 l 314 -87 l 278 -87 l 278 -12 q 263 -12 247 -11 q 231 -10 215 -7 q 144 3 100 25 q 57 47 4 96 z m 358 52 q 384 61 398 78 q 413 96 413 117 q 413 127 410 136 q 407 144 400 155 q 390 169 385 174 q 375 185 361 194 q 345 207 338 212 q 326 218 314 225 l 314 45 q 328 45 336 46 q 344 47 358 52 z m 264 669 q 227 663 210 644 q 194 624 194 591 q 194 572 205 556 q 216 539 244 516 l 278 488 l 278 673 q 275 673 273 673 q 266 669 264 669 z"},"?":{"x_min":0,"x_max":465,"ha":465,"o":"m 66 73 q 66 119 90 141 q 113 163 169 163 q 190 163 202 162 q 215 161 241 157 q 267 153 282 130 q 298 108 298 75 q 298 53 288 28 q 278 2 257 -6 q 236 -14 181 -14 q 134 -14 112 -2 q 90 10 66 73 z m 208 292 l 208 195 l 155 195 l 155 423 q 155 466 190 470 q 193 471 201 470 q 209 470 221 469 q 232 469 240 472 q 249 474 261 482 q 299 507 299 563 q 299 568 299 574 q 297 582 297 586 q 294 609 282 630 q 270 651 258 663 q 245 675 234 679 q 216 687 213 665 l 210 644 q 210 588 173 561 q 148 542 101 542 l 65 548 q 39 556 23 578 q 7 600 7 628 q 7 647 14 664 q 26 696 63 716 q 100 735 159 735 q 188 735 202 734 q 216 732 241 727 q 343 707 400 624 q 417 600 428 570 q 445 525 445 482 q 445 412 398 370 q 351 328 274 328 l 256 328 q 228 328 218 320 q 208 312 208 292 z"},"'":{"x_min":0,"x_max":224,"ha":224,"o":"m 29 468 l 51 720 l 195 720 l 173 468 z"},"a":{"x_min":0,"x_max":547,"ha":547,"o":"m 301 313 l 301 409 q 301 428 293 440 q 285 452 273 455 q 261 458 257 458 q 228 458 228 424 l 228 412 q 228 311 149 311 q 113 311 91 330 q 69 349 69 377 q 69 384 73 398 q 89 446 154 479 q 228 517 332 517 l 364 516 q 435 510 465 485 q 495 460 495 409 l 495 119 l 496 85 q 496 76 506 69 q 517 62 529 64 q 548 69 558 86 l 563 95 q 553 42 504 10 q 483 -5 455 -11 q 447 -13 436 -14 q 425 -15 416 -15 q 357 -15 309 36 l 295 51 l 280 36 q 258 14 236 2 q 215 -9 185 -13 q 178 -14 164 -14 q 130 -14 97 1 q 22 38 22 119 q 22 149 34 176 q 46 203 74 228 q 102 253 132 265 q 163 277 275 306 z m 285 260 q 222 237 222 155 q 222 134 223 122 q 224 110 229 99 q 238 76 260 76 q 273 76 284 86 l 294 96 l 300 103 l 301 266 z"},"L":{"x_min":0,"x_max":543,"ha":543,"o":"m 6 0 l 16 4 q 41 17 48 30 q 56 44 56 76 l 56 642 q 56 674 49 686 q 42 698 14 715 l 6 720 l 323 720 l 314 716 q 287 700 280 687 q 272 674 272 643 l 272 118 q 272 90 293 72 q 314 54 354 54 q 376 54 403 60 q 446 70 479 100 q 512 130 548 195 l 557 212 l 479 -42 l 478 -38 l 475 -32 q 467 -18 457 -11 q 447 -4 426 -1 l 412 0 z"},"3":{"x_min":0,"x_max":544,"ha":544,"o":"m 130 357 l 130 388 l 140 388 q 266 388 281 507 q 282 513 282 526 q 282 543 278 558 q 271 588 247 606 q 223 624 189 624 q 164 624 140 612 q 97 591 67 553 q 61 546 55 538 q 49 529 41 515 l 45 537 q 59 598 96 644 q 134 689 186 711 q 238 733 288 733 q 332 733 374 715 q 415 697 440 658 q 464 619 464 572 q 464 520 430 476 q 396 431 332 406 l 318 400 q 332 400 364 395 q 431 382 470 336 q 510 291 510 228 q 510 171 475 112 q 440 52 380 19 q 321 -14 246 -14 q 230 -14 220 -13 q 211 -12 190 -9 q 146 -1 114 15 q 81 31 60 53 q 29 87 29 131 q 29 166 48 194 q 66 222 100 235 q 118 242 140 242 q 178 242 204 218 q 231 195 231 160 q 232 153 230 137 q 230 123 222 109 l 220 105 l 215 96 l 211 87 q 207 71 218 56 q 230 41 248 41 q 278 41 292 76 q 305 110 305 195 q 305 271 261 314 q 217 357 146 357 z"},";":{"x_min":0,"x_max":303,"ha":303,"o":"m 74 -161 q 86 -152 89 -150 q 95 -145 112 -128 q 164 -73 181 0 l 164 -4 q 151 -7 138 -8 q 124 -9 111 -9 q 70 -9 53 10 q 36 29 36 72 q 36 119 58 140 q 81 162 136 162 q 166 162 216 154 q 238 151 252 129 q 267 107 267 71 q 267 39 256 4 q 245 -31 220 -64 q 195 -96 158 -123 q 142 -135 120 -144 q 99 -153 74 -161 z m 36 431 q 36 481 60 500 q 85 518 151 518 q 218 518 242 500 q 267 481 267 431 q 267 381 242 362 q 218 344 151 344 q 85 344 60 362 q 36 381 36 431 z"},"J":{"x_min":0,"x_max":507,"ha":507,"o":"m 232 100 l 232 642 q 232 674 225 686 q 218 698 188 716 l 180 720 l 501 720 l 493 716 q 464 698 456 686 q 448 673 448 642 l 448 173 q 448 84 397 36 q 342 -16 235 -16 q 200 -16 161 -10 q 53 6 7 71 q -16 103 -16 139 q -16 169 -2 192 q 13 216 38 226 q 62 235 82 235 q 119 235 140 208 q 162 180 162 129 l 162 91 l 162 84 l 163 71 q 163 37 197 37 q 203 37 206 38 q 232 45 232 71 l 232 81 z"},"V":{"x_min":0,"x_max":579,"ha":579,"o":"m -22 720 l 299 720 l 290 715 q 272 705 265 698 q 258 690 258 679 q 258 670 268 642 l 375 357 l 467 642 q 474 662 474 676 q 474 695 434 716 l 425 720 l 601 720 l 592 716 l 576 707 q 554 694 544 682 q 535 670 525 642 l 305 -23 l 30 643 q 18 671 12 682 q 5 694 -9 708 l -16 715 z"},"\"":{"x_min":0,"x_max":426,"ha":426,"o":"m 51 720 l 195 720 l 173 468 l 29 468 z m 254 719 l 398 719 l 376 467 l 232 467 z"},"7":{"x_min":0,"x_max":544,"ha":544,"o":"m 43 487 l 86 720 l 510 720 l 473 655 q 394 504 366 405 q 331 282 331 116 l 328 18 l 329 11 l 329 0 l 112 0 l 112 9 l 112 18 q 112 83 130 144 q 149 205 197 302 q 223 352 260 407 l 275 430 l 302 467 q 321 495 332 508 q 342 522 353 536 l 358 542 l 367 552 l 165 552 q 126 552 104 544 q 83 536 63 516 q 50 502 43 487 z"},"S":{"x_min":0,"x_max":562,"ha":562,"o":"m -11 96 l 71 248 l 77 222 q 97 156 134 114 q 170 73 219 57 q 257 44 292 44 q 303 44 316 46 q 328 48 341 51 q 366 58 380 76 q 394 95 394 118 q 394 137 382 154 q 371 170 358 181 q 346 192 310 218 l 246 256 l 212 274 l 180 290 l 141 313 q 81 356 57 405 q 33 454 33 521 q 33 617 100 677 q 167 737 274 737 q 315 737 357 728 q 399 719 446 699 l 496 675 l 515 664 l 527 658 l 444 504 l 438 520 q 405 604 363 644 q 321 684 271 684 q 265 684 240 680 q 215 677 195 656 q 175 635 175 606 q 175 595 180 580 q 190 553 212 532 q 234 511 285 483 l 334 456 l 347 449 l 398 421 q 443 396 470 372 q 504 344 522 303 q 541 262 541 216 q 541 169 522 126 q 502 83 464 52 q 425 20 376 3 q 328 -14 271 -14 q 237 -14 201 -8 q 130 3 78 29 q 26 55 -11 96 z"},"}":{"x_min":0,"x_max":367,"ha":367,"o":"m 29 -122 l 29 -36 l 42 -36 q 72 -36 85 -25 q 98 -14 98 12 l 98 266 q 98 295 115 318 q 132 342 161 354 l 187 360 l 161 366 q 132 378 115 402 q 98 425 98 454 l 98 708 q 98 734 86 745 q 74 756 42 756 l 29 756 l 29 842 l 172 842 q 219 842 245 816 q 271 790 271 742 l 271 432 q 271 401 290 380 q 310 360 338 360 q 310 360 290 340 q 271 319 271 288 l 271 -22 q 271 -70 245 -96 q 219 -122 172 -122 z"},"Z":{"x_min":0,"x_max":592,"ha":592,"o":"m 7 0 l 300 661 l 278 661 q 195 661 146 632 q 96 602 46 520 l 36 504 l 89 778 l 92 769 q 98 747 113 736 q 128 724 139 722 q 150 720 187 720 l 564 720 l 267 57 l 285 58 q 405 58 454 82 q 502 105 561 188 l 576 213 l 580 221 l 585 232 l 502 -43 q 489 0 426 0 z"},"x":{"x_min":0,"x_max":525,"ha":525,"o":"m -22 0 l -8 4 q 32 17 50 30 q 68 43 92 76 l 181 203 l 53 428 q 34 462 19 478 q 4 494 -13 503 l 289 503 q 285 501 281 499 q 278 497 273 492 q 262 481 262 471 q 262 461 279 427 l 304 382 l 337 428 q 360 461 360 473 q 360 483 352 492 q 344 500 333 503 l 494 503 l 472 493 q 454 484 441 472 q 428 459 406 428 l 335 327 l 477 76 q 495 43 507 30 q 519 18 544 5 l 554 0 l 248 0 l 255 4 q 274 17 274 28 q 274 38 253 76 l 212 151 l 160 77 q 137 43 137 31 q 137 17 157 5 l 166 0 z"},")":{"x_min":0,"x_max":398,"ha":398,"o":"m 7 -151 l 16 -140 l 25 -130 q 96 -41 130 74 q 164 188 164 347 l 164 360 l 164 371 q 164 531 130 644 q 97 758 25 848 l 16 858 l 7 869 l 17 864 l 29 857 q 164 786 246 670 q 356 515 356 359 q 356 202 246 48 q 165 -67 29 -139 l 16 -146 z"},"&":{"x_min":0,"x_max":702,"ha":702,"o":"m 207 402 l 185 440 l 174 462 q 152 513 152 563 q 152 637 201 685 q 250 733 336 733 q 412 733 458 705 q 503 677 511 630 q 512 626 512 623 q 512 619 512 616 q 512 582 488 562 q 463 541 423 541 q 359 541 359 622 q 359 630 356 646 q 352 662 347 670 q 338 682 325 682 q 313 682 306 672 q 300 663 300 652 q 300 642 308 623 l 314 612 l 449 380 q 452 391 456 401 q 460 411 466 420 q 486 456 514 474 q 536 488 564 488 q 592 488 614 473 q 635 458 641 432 q 644 420 644 409 q 644 376 626 356 q 607 336 584 336 q 558 336 543 357 q 537 365 528 371 q 519 377 514 377 q 490 377 478 342 l 476 335 l 659 28 q 663 24 667 20 q 680 7 702 0 l 377 0 l 383 3 q 409 17 409 39 q 409 44 406 52 l 391 84 q 372 40 324 12 q 276 -15 209 -15 q 62 -15 28 132 q 21 160 21 188 q 21 314 182 390 z m 222 195 q 235 154 252 131 q 269 108 289 100 q 293 98 300 96 q 308 95 316 95 q 335 95 349 104 q 363 113 366 127 l 233 357 q 201 341 201 294 q 201 260 222 195 z"},"_":{"x_min":0,"x_max":418,"ha":418,"o":"m 29 -43 l 29 0 l 389 0 l 389 -43 z"},"v":{"x_min":0,"x_max":461,"ha":461,"o":"m -32 503 l 288 503 l 279 498 q 268 491 263 487 q 253 478 253 467 q 253 461 256 450 q 259 440 264 426 l 315 292 l 365 426 q 376 456 376 467 q 376 484 350 498 l 341 503 l 493 503 l 484 498 q 459 483 448 469 q 436 455 423 426 l 230 -26 l 36 427 q 22 457 10 472 q -1 486 -23 498 z"},"O":{"x_min":0,"x_max":645,"ha":645,"o":"m 37 447 q 64 590 138 662 q 211 734 320 734 q 334 734 349 733 q 364 732 380 729 q 459 716 519 646 q 584 570 608 446 q 612 428 614 404 q 616 381 616 360 q 616 326 614 312 q 613 299 608 275 q 584 151 520 75 q 460 5 380 -9 q 347 -14 322 -14 q 212 -14 140 56 q 64 129 37 273 q 32 301 32 361 q 32 400 37 447 z m 253 106 q 271 38 322 38 q 349 38 366 54 q 383 69 392 106 q 395 115 396 225 q 397 335 397 360 l 397 405 q 397 418 397 428 q 397 437 397 443 q 397 465 397 475 q 397 493 397 502 q 397 517 397 523 q 397 535 397 541 q 397 551 397 555 q 397 563 397 567 q 397 609 392 614 q 377 670 344 679 q 332 682 320 682 q 271 682 253 614 q 250 600 249 502 q 248 405 248 360 q 248 249 249 183 q 250 117 253 106 z"},"(":{"x_min":0,"x_max":394,"ha":394,"o":"m 387 869 l 370 846 q 295 741 265 638 q 235 534 235 370 l 235 358 l 235 346 q 235 184 265 80 q 295 -25 370 -129 l 387 -152 l 369 -141 q 278 -86 234 -48 q 190 -10 154 41 q 43 199 43 359 q 43 518 153 676 q 189 727 234 766 q 279 804 369 858 z"},"C":{"x_min":0,"x_max":573,"ha":573,"o":"m 554 686 l 472 530 l 470 536 l 468 543 q 446 620 393 657 q 364 677 331 677 q 301 677 277 660 q 253 643 244 613 q 241 602 238 593 q 236 584 234 571 q 221 497 221 433 q 221 304 271 235 q 317 171 395 171 q 435 171 470 186 q 504 201 541 240 l 561 265 l 567 273 l 573 283 l 571 273 l 568 259 q 551 185 514 123 q 474 57 413 21 q 352 -15 288 -15 q 179 -15 114 72 q 87 107 70 148 q 48 201 38 252 q 27 302 27 353 q 27 504 116 610 q 204 716 336 730 q 343 731 352 731 q 360 731 365 731 q 434 731 505 706 l 543 691 l 548 689 z"},"W":{"x_min":0,"x_max":869,"ha":869,"o":"m -22 720 l 300 720 l 292 715 q 274 705 267 698 q 260 690 260 679 q 260 668 269 642 l 358 375 l 412 517 l 375 642 q 367 668 360 680 q 353 692 335 707 l 325 715 l 319 720 l 635 720 l 627 715 q 608 702 604 698 q 597 690 597 679 q 597 668 606 642 l 687 392 l 768 642 q 776 663 776 678 q 776 696 744 715 l 735 720 l 891 720 l 884 716 l 871 707 q 852 693 844 682 q 836 670 826 642 l 602 -21 l 438 440 l 270 -23 l 38 641 q 27 671 20 682 q 14 692 -4 706 l -16 715 z"},"A":{"x_min":0,"x_max":570,"ha":570,"o":"m -47 0 l -38 5 q -18 17 -7 32 q 4 46 17 76 l 280 742 l 558 76 q 572 43 582 30 q 592 17 611 5 l 620 0 l 288 0 l 298 3 q 337 20 337 42 q 337 53 328 76 l 282 188 l 122 188 l 76 76 q 66 49 66 39 q 66 20 98 4 l 107 0 z m 260 243 l 202 410 l 144 243 z"},"f":{"x_min":0,"x_max":318,"ha":318,"o":"m 0 0 l 10 4 q 35 17 43 30 q 51 44 51 76 l 51 445 l 1 445 l 1 503 l 51 503 l 51 589 q 51 655 89 694 q 127 733 196 733 q 257 733 295 707 q 327 684 327 646 q 327 618 307 598 q 296 587 278 580 q 261 572 241 572 q 204 572 181 597 q 165 614 165 637 q 165 665 186 680 l 176 680 q 148 676 130 658 q 113 640 113 616 q 113 603 117 592 q 132 551 173 527 q 214 503 279 503 l 321 503 l 321 445 l 253 445 l 253 76 q 253 44 260 31 q 267 18 293 4 l 302 0 z"},"Q":{"x_min":0,"x_max":645,"ha":645,"o":"m 417 0 l 424 -19 q 442 -62 468 -86 q 495 -109 546 -126 q 573 -136 596 -136 l 578 -140 q 540 -147 500 -147 q 413 -147 352 -110 q 290 -74 262 -7 q 186 3 127 71 q 62 146 37 273 q 29 318 29 360 q 29 401 37 447 q 64 590 138 662 q 211 734 320 734 q 334 734 349 733 q 364 732 380 729 q 459 716 519 646 q 584 570 608 446 q 612 428 614 404 q 616 381 616 360 q 616 326 614 312 q 613 299 608 275 q 588 169 544 109 q 504 54 417 0 z m 253 106 q 271 38 322 38 q 349 38 366 54 q 383 69 392 106 q 395 115 396 225 q 397 335 397 360 l 397 405 q 397 418 397 428 q 397 437 397 443 q 397 465 397 475 q 397 493 397 502 q 397 517 397 523 q 397 535 397 541 q 397 551 397 555 q 397 563 397 567 q 397 609 392 614 q 377 670 344 679 q 332 682 320 682 q 271 682 253 614 q 250 600 249 502 q 248 405 248 360 q 248 249 249 183 q 250 117 253 106 z"},"w":{"x_min":0,"x_max":761,"ha":761,"o":"m -32 503 l 272 503 l 263 499 q 242 488 242 471 q 242 458 254 428 l 315 274 l 362 387 l 345 428 q 337 447 326 465 q 315 483 305 493 l 300 497 l 294 503 l 590 503 l 580 499 q 550 486 550 466 q 550 454 559 428 l 611 281 l 663 427 q 673 454 673 468 q 673 486 648 499 l 638 503 l 793 503 l 783 498 q 760 486 748 472 q 735 458 722 427 l 530 -24 l 388 313 l 238 -24 l 36 428 q 23 459 10 474 q -2 488 -22 498 z"},"-":{"x_min":0,"x_max":271,"ha":271,"o":"m 22 255 l 22 375 l 249 375 l 249 255 z"},"E":{"x_min":0,"x_max":598,"ha":598,"o":"m 6 720 l 432 720 q 461 720 470 722 q 480 724 492 734 q 509 748 514 767 l 516 776 l 566 541 l 563 550 l 561 555 q 545 585 513 610 q 481 634 430 650 q 391 662 360 662 q 320 662 302 653 q 285 644 278 618 l 276 603 l 276 406 l 405 406 q 494 406 510 501 l 511 510 l 511 240 l 508 256 q 497 307 474 328 q 450 348 404 348 l 276 348 l 276 115 q 276 86 296 69 q 315 52 357 52 q 391 52 437 65 q 539 92 587 201 l 591 209 l 514 -44 q 511 -34 504 -26 q 497 -18 484 -9 q 470 0 439 0 l 9 0 l 19 4 q 44 17 52 30 q 60 44 60 76 l 60 641 q 60 674 53 686 q 46 697 14 716 z"},"s":{"x_min":0,"x_max":446,"ha":446,"o":"m 0 56 l 67 196 q 86 114 164 68 q 219 35 259 35 q 279 35 293 44 q 307 53 307 73 q 307 87 297 97 l 286 107 l 263 123 l 250 131 l 173 180 q 144 197 126 210 q 107 223 92 235 q 30 283 30 358 q 30 421 79 464 q 107 488 142 502 q 177 516 224 516 q 283 516 333 504 q 383 493 423 467 l 363 344 l 358 354 l 351 367 q 327 410 296 432 q 247 467 210 467 q 198 467 191 463 q 177 455 179 439 q 182 423 196 406 q 211 388 247 363 l 279 343 q 298 332 319 320 q 345 304 359 295 q 394 271 413 235 q 432 199 432 160 q 432 83 370 34 q 309 -15 216 -15 q 206 -15 201 -15 q 195 -15 189 -15 q 180 -13 176 -13 q 140 -9 110 2 q 81 12 34 37 l 11 49 z"},"l":{"x_min":0,"x_max":301,"ha":301,"o":"m -9 646 q 58 646 124 669 q 190 692 251 734 l 251 76 q 251 43 258 30 q 265 17 291 4 l 300 0 l -5 0 l 5 4 q 33 17 42 30 q 50 44 50 76 l 50 572 q 50 582 48 590 q 47 599 43 606 q 30 630 18 638 q 6 647 -9 646 z"},"8":{"x_min":0,"x_max":543,"ha":543,"o":"m 159 384 l 150 393 q 138 405 127 418 q 116 432 106 449 q 92 475 84 502 q 77 529 77 555 q 77 619 116 667 q 156 715 224 728 q 253 734 282 734 q 325 734 368 722 q 412 711 440 676 q 467 641 467 595 q 467 552 442 511 q 421 477 388 445 l 379 437 l 384 433 l 391 429 q 417 411 435 393 q 528 306 528 207 q 528 142 484 80 q 449 31 386 8 q 323 -16 231 -16 q 194 -16 168 -8 q 141 0 112 18 q 67 45 42 88 q 18 130 18 180 q 18 247 62 300 q 82 324 97 338 q 120 360 151 379 z m 307 509 q 318 530 323 549 q 334 588 334 613 q 334 638 320 656 q 306 674 284 674 q 260 674 246 653 q 237 639 237 620 q 237 598 252 568 q 266 539 298 501 l 301 497 z m 215 277 q 205 255 200 232 q 196 210 196 187 q 196 129 212 94 q 227 60 253 48 q 267 41 285 41 q 309 41 328 56 q 348 72 353 96 q 355 110 355 117 q 355 141 344 169 l 330 200 l 329 203 q 320 229 299 255 q 288 268 264 291 l 236 318 z"},"\\":{"x_min":0,"x_max":328,"ha":328,"o":"m 29 720 l 173 720 l 299 0 l 155 0 z"},"e":{"x_min":0,"x_max":488,"ha":488,"o":"m 469 281 l 203 281 l 203 264 q 203 251 204 237 q 206 223 210 208 q 223 161 258 134 q 293 107 339 107 q 386 107 428 136 l 470 175 q 462 113 421 64 q 391 28 346 7 q 301 -14 251 -14 q 233 -14 224 -13 q 215 -12 193 -6 q 171 -1 148 11 q 91 40 58 98 q 24 156 24 231 q 24 270 35 317 q 60 418 138 474 q 194 514 261 514 q 323 514 376 480 q 428 445 453 383 q 470 340 470 297 z m 291 346 l 290 358 q 290 386 287 402 q 284 418 276 438 q 268 457 246 457 q 237 457 227 450 q 217 443 210 422 q 203 402 203 361 l 202 347 l 203 332 l 290 332 z"},"b":{"x_min":0,"x_max":549,"ha":549,"o":"m -9 646 q 58 646 124 669 q 190 692 251 734 l 251 448 q 259 455 268 463 q 287 486 292 489 q 328 515 371 515 q 410 515 444 490 q 477 466 495 423 q 509 388 516 348 q 524 309 524 266 q 524 217 512 172 q 500 126 479 91 q 449 42 398 15 q 348 -12 294 -12 q 237 -12 195 18 l 158 49 l 145 60 l 50 -14 l 50 572 q 50 582 48 590 q 47 599 43 606 q 30 630 21 636 q 12 643 -9 646 z m 248 92 q 248 67 252 52 q 256 36 276 36 q 283 36 290 41 q 296 46 300 52 q 304 59 310 76 q 315 93 318 138 q 322 183 322 225 q 322 284 318 320 q 314 355 309 373 q 297 413 279 413 q 269 413 261 406 l 248 396 z"},"%":{"x_min":0,"x_max":793,"ha":793,"o":"m 75 0 l 191 0 l 718 720 l 602 720 z m 594 362 q 667 362 716 306 q 765 250 765 173 q 765 97 716 42 q 668 -14 596 -14 q 522 -14 472 40 q 423 94 423 171 q 423 248 472 305 q 521 362 594 362 z m 196 736 q 269 736 318 680 q 367 624 367 547 q 367 471 318 416 q 270 360 198 360 q 124 360 74 414 q 25 468 25 545 q 25 622 74 679 q 123 736 196 736 z m 568 180 q 568 98 575 65 q 582 32 595 32 q 612 32 617 74 q 622 116 622 174 l 622 219 q 622 279 616 298 q 610 316 596 316 q 575 316 572 286 q 568 257 568 224 q 568 209 568 198 q 568 186 568 180 z m 170 554 q 170 472 177 439 q 184 406 197 406 q 214 406 219 448 q 224 490 224 548 l 224 593 q 224 653 218 672 q 212 690 198 690 q 177 690 174 660 q 170 631 170 598 q 170 583 170 572 q 170 560 170 554 z"},"m":{"x_min":0,"x_max":851,"ha":851,"o":"m -6 428 l 55 440 q 101 452 150 472 q 200 491 245 516 l 245 448 l 288 473 l 318 489 q 383 521 437 521 q 478 521 502 502 q 526 484 529 454 l 529 444 l 544 454 l 559 463 l 573 470 l 603 486 q 657 516 692 516 q 802 516 802 436 l 802 76 q 802 44 809 31 q 816 18 841 4 l 850 0 l 562 0 l 571 6 q 593 20 600 34 q 607 48 607 76 l 607 377 q 607 412 577 412 q 567 412 547 407 q 539 405 523 397 l 523 76 q 523 47 529 33 q 535 19 552 5 l 557 2 l 559 0 l 291 0 l 299 7 q 318 25 324 38 q 329 51 329 76 l 329 370 q 329 411 302 411 q 299 411 285 409 l 268 405 l 261 403 l 253 400 l 245 397 l 245 76 q 245 45 250 33 q 256 21 276 7 l 286 1 l -4 0 l 6 4 q 33 17 42 31 q 50 45 50 76 l 50 359 l 50 368 q 46 396 37 408 q 28 420 6 426 z"},",":{"x_min":0,"x_max":275,"ha":275,"o":"m 60 -161 q 72 -152 75 -150 q 81 -145 98 -128 q 150 -73 167 0 l 150 -4 q 137 -7 124 -8 q 110 -9 97 -9 q 56 -9 39 10 q 22 29 22 72 q 22 119 44 140 q 67 162 122 162 q 152 162 202 154 q 224 151 238 129 q 253 107 253 71 q 253 39 242 4 q 231 -31 206 -64 q 181 -96 144 -123 q 125 -137 106 -146 q 86 -154 60 -161 z"},"n":{"x_min":0,"x_max":583,"ha":583,"o":"m -6 428 q 74 441 152 472 q 170 480 197 492 q 224 505 245 516 l 245 440 l 264 452 l 315 480 q 392 517 427 517 q 534 517 534 433 l 534 76 q 534 44 541 31 q 548 18 573 4 l 582 0 l 290 0 l 292 2 l 301 7 q 319 20 326 34 q 332 49 332 76 l 332 367 l 331 388 q 329 411 306 411 q 295 411 278 404 q 261 396 252 386 l 252 76 q 252 47 256 37 q 260 27 280 7 l 287 0 l -3 0 l 7 4 q 34 18 42 30 q 50 43 50 76 l 50 359 l 50 368 q 46 395 37 408 q 28 421 6 426 z"},"h":{"x_min":0,"x_max":585,"ha":585,"o":"m -6 646 l 30 649 q 152 664 254 734 l 254 435 l 268 445 l 280 453 q 305 469 337 484 l 368 497 q 422 518 457 518 q 497 518 516 494 q 535 471 535 425 l 535 76 q 535 45 543 31 q 551 17 574 4 l 584 0 l 293 0 l 302 7 q 320 20 327 34 q 334 49 334 75 l 334 367 l 332 388 q 330 414 305 414 q 297 414 289 410 l 281 405 l 273 400 l 267 396 l 254 384 l 254 76 q 254 43 265 27 l 283 7 l 290 0 l -5 0 l 5 4 q 34 16 44 30 q 53 44 53 75 l 53 572 q 53 582 52 590 q 50 599 46 606 q 33 630 22 638 q 10 647 -6 646 z"},"z":{"x_min":0,"x_max":456,"ha":456,"o":"m -4 0 l 207 448 l 155 448 q 110 448 83 435 q 56 422 30 388 l 19 374 l 16 370 l 51 546 q 51 511 106 503 l 118 503 l 449 503 l 238 55 l 304 55 q 358 55 390 74 q 423 93 450 142 l 459 157 l 462 165 l 403 -49 q 403 -18 361 -4 q 354 -2 342 -1 q 331 0 307 0 z"},"B":{"x_min":0,"x_max":640,"ha":640,"o":"m 489 383 q 549 364 584 317 q 606 287 614 253 q 623 219 623 187 q 623 82 524 36 q 426 -9 213 -9 l 88 -4 l 6 1 l 16 5 q 44 17 52 32 q 59 47 59 83 l 59 645 q 59 677 51 688 q 43 698 11 714 l 3 718 l 176 728 q 231 728 287 728 q 343 727 371 722 q 468 705 496 693 q 567 662 588 586 q 594 562 594 542 q 594 495 566 462 q 539 428 490 408 l 460 392 z m 268 364 l 268 54 l 280 49 l 301 46 q 352 46 374 76 q 401 112 401 204 q 401 287 369 329 q 342 364 301 364 z m 267 664 l 267 418 l 295 419 q 320 419 336 435 q 370 470 370 568 q 370 627 341 657 q 317 682 299 675 z"},"K":{"x_min":0,"x_max":673,"ha":673,"o":"m 6 0 l 16 4 q 43 17 51 30 q 59 44 59 76 l 59 642 q 59 675 52 687 q 45 699 15 716 l 7 720 l 330 720 l 322 716 q 291 699 283 687 q 275 675 275 642 l 275 381 l 485 642 q 509 672 509 686 q 509 700 478 716 l 468 720 l 652 720 l 644 716 l 627 707 q 600 692 590 682 q 579 673 554 642 l 409 459 l 633 76 q 653 42 664 30 q 674 17 693 5 l 702 0 l 354 0 l 364 4 q 399 20 399 37 q 399 50 385 76 l 275 284 l 275 76 q 275 44 283 31 q 291 18 320 4 l 330 0 z"},"R":{"x_min":0,"x_max":632,"ha":632,"o":"m 6 718 l 128 726 l 200 729 l 276 730 q 395 730 454 712 q 512 694 549 653 q 611 584 611 499 q 611 440 582 392 q 552 343 496 315 l 472 303 l 479 272 q 504 159 539 78 q 569 8 625 -76 l 639 -96 q 580 -71 524 -25 q 465 24 407 100 q 361 161 338 204 q 314 247 304 284 l 300 284 l 297 283 q 294 282 286 282 q 279 282 275 282 l 266 283 l 266 76 q 266 41 274 30 q 283 18 316 4 l 326 0 l 6 0 l 16 4 q 42 17 50 31 q 58 45 58 76 l 58 642 q 58 674 50 688 q 43 701 16 714 z m 347 368 q 369 386 380 416 q 391 447 391 505 q 391 591 370 632 q 349 674 308 674 q 296 674 282 671 l 266 667 l 266 339 q 266 330 276 330 q 287 330 308 342 q 328 353 347 368 z"},"T":{"x_min":0,"x_max":612,"ha":612,"o":"m -14 508 l 35 780 l 40 767 q 52 738 71 729 q 90 720 139 720 l 479 720 q 517 720 527 722 q 537 724 552 736 q 568 749 574 769 l 576 780 l 626 508 l 617 530 q 602 560 588 581 q 532 659 464 659 q 445 659 422 653 l 414 650 l 414 75 q 414 43 422 30 q 430 16 457 4 l 467 0 l 145 0 l 155 4 q 181 17 190 31 q 198 45 198 76 l 198 651 q 177 660 153 660 q 109 660 68 629 q 28 598 -3 533 z"},"P":{"x_min":0,"x_max":610,"ha":610,"o":"m 1 0 l 11 4 q 40 18 48 32 q 57 45 57 77 l 57 639 q 57 674 50 686 q 42 698 12 711 l 2 715 l 86 722 l 211 726 q 411 726 510 672 q 608 618 608 517 q 608 482 598 448 q 587 413 569 386 q 533 330 472 308 q 412 285 301 285 l 282 286 l 273 287 l 273 76 q 273 45 281 32 q 289 18 315 4 l 324 0 z m 281 341 q 334 346 360 386 q 387 426 387 513 q 387 606 367 638 q 347 671 298 671 l 284 669 l 273 666 l 273 340 z"},"t":{"x_min":0,"x_max":355,"ha":355,"o":"m -17 445 l -17 486 q 135 520 230 662 l 254 703 l 254 503 l 382 503 l 382 445 l 254 445 l 254 126 q 254 104 264 92 q 274 80 290 80 q 295 80 306 84 q 316 87 319 89 q 327 95 330 97 q 350 112 358 125 l 361 129 l 364 135 l 363 128 l 362 122 q 349 69 305 31 q 279 9 250 -2 q 220 -13 190 -13 q 172 -13 157 -9 q 106 4 80 36 q 53 68 53 117 l 53 445 z"},"M":{"x_min":0,"x_max":782,"ha":782,"o":"m -29 0 l -19 4 q 7 17 16 30 q 25 44 29 76 l 95 642 q 96 648 96 653 q 96 660 96 663 q 96 682 88 692 q 79 701 52 716 l 44 720 l 307 720 l 396 422 l 483 720 l 733 720 l 724 716 q 698 701 690 692 q 682 682 682 663 q 682 658 684 642 l 757 76 q 761 44 770 31 q 779 18 808 4 l 818 0 l 499 0 l 508 4 q 538 23 538 53 q 538 58 537 65 q 536 72 536 76 l 479 535 l 310 -28 l 138 535 l 84 76 q 82 58 82 54 q 82 35 90 25 q 98 15 119 4 l 129 0 z"},"g":{"x_min":0,"x_max":498,"ha":498,"o":"m 146 -9 l 126 -4 l 106 2 q 66 18 66 51 q 66 70 81 87 q 109 120 138 135 q 146 139 180 151 q 130 159 90 195 q 58 223 42 258 q 26 293 26 330 q 26 370 46 408 q 67 447 105 475 q 137 498 178 508 q 218 517 271 517 q 285 517 297 514 q 309 512 349 499 l 370 492 q 374 501 376 506 q 379 513 384 519 q 398 539 410 549 q 422 559 436 564 q 451 570 462 570 q 488 570 507 553 q 526 536 526 511 q 526 490 516 475 q 506 460 496 458 q 486 456 479 456 q 460 456 449 468 q 438 480 441 497 q 424 486 415 470 l 410 462 l 438 423 q 462 379 462 334 q 462 282 431 236 q 388 169 310 152 q 296 149 289 148 q 282 147 267 147 l 251 147 q 241 142 241 131 q 241 125 247 118 q 253 111 294 99 q 320 91 346 84 q 518 28 518 -60 q 518 -91 498 -126 q 478 -162 437 -180 q 396 -198 310 -205 q 297 -206 288 -206 q 278 -207 270 -207 q 257 -207 244 -206 q 230 -206 216 -206 q 144 -206 111 -198 q 78 -191 48 -172 q 18 -153 18 -120 q 18 -93 41 -70 q 53 -58 94 -35 q 134 -12 146 -9 z m 172 -61 q 156 -78 156 -99 q 156 -132 189 -147 q 216 -159 249 -159 q 270 -159 288 -155 q 306 -151 321 -144 q 343 -133 343 -108 q 343 -96 339 -87 q 331 -65 275 -47 q 241 -36 214 -32 q 202 -33 191 -42 q 186 -46 172 -61 z m 205 261 q 205 228 216 212 q 226 197 244 197 q 260 197 272 214 q 284 230 284 262 l 284 401 q 284 435 270 452 q 261 462 246 462 q 229 462 218 448 q 212 440 208 429 q 205 418 205 403 z"},"j":{"x_min":0,"x_max":295,"ha":295,"o":"m 120 -148 l 130 -148 q 158 -145 174 -128 q 191 -110 191 -85 q 191 -64 179 -42 q 167 -21 142 -10 q 117 2 71 2 l 51 1 l 51 359 l 51 367 q 47 396 38 408 q 28 421 6 426 l -5 428 l 29 433 q 149 456 253 516 l 253 -39 q 253 -85 246 -108 q 239 -132 221 -154 q 203 -176 174 -188 q 146 -199 108 -199 q 93 -199 85 -198 q 30 -193 4 -172 q -23 -150 -23 -115 q -23 -82 0 -62 q 23 -42 63 -42 q 96 -42 119 -60 q 129 -67 134 -78 q 139 -90 139 -101 q 139 -127 120 -148 z m 32 640 q 32 682 58 705 q 84 728 138 728 q 162 728 172 726 q 182 725 206 720 q 231 714 247 692 q 263 670 263 640 q 263 620 254 598 q 244 577 220 564 q 195 551 157 551 q 128 551 89 560 q 32 572 32 640 z"},"i":{"x_min":0,"x_max":302,"ha":302,"o":"m -6 428 q 132 446 252 516 l 252 76 q 252 44 259 31 q 266 18 291 4 l 301 0 l -5 0 l 5 4 q 33 17 42 30 q 50 44 50 76 l 50 359 l 50 368 q 46 396 37 408 q 28 420 6 426 q -4 428 -6 428 z m 31 640 q 31 685 58 706 q 84 726 146 726 q 176 726 203 720 q 230 714 246 692 q 262 670 262 640 q 262 620 253 599 q 238 566 202 558 q 166 551 135 551 q 83 551 57 575 q 31 599 31 640 z"},"y":{"x_min":0,"x_max":453,"ha":453,"o":"m -32 503 l 255 503 l 248 499 q 231 487 231 471 q 231 458 242 428 l 299 274 l 356 428 q 365 452 365 466 q 365 486 340 499 l 331 503 l 482 503 l 472 498 q 449 487 438 474 q 428 461 415 428 l 234 -68 q 211 -130 187 -159 q 163 -188 129 -196 q 112 -200 92 -200 q 22 -200 -6 -152 q -13 -140 -16 -128 q -19 -117 -19 -105 q -19 -51 28 -33 q 50 -25 67 -25 q 97 -25 115 -44 q 133 -63 133 -94 q 133 -104 133 -108 q 133 -117 131 -127 q 148 -113 156 -100 q 165 -88 177 -57 l 198 -5 l 28 428 q 17 456 8 470 q -2 484 -15 493 z"},".":{"x_min":0,"x_max":275,"ha":275,"o":"m 22 73 q 22 123 46 142 q 71 161 137 161 q 191 161 212 153 q 234 145 243 121 q 248 111 251 96 q 254 81 254 70 q 254 39 238 16 q 223 -6 208 -8 q 193 -11 175 -12 q 157 -14 137 -14 q 71 -14 46 4 q 22 23 22 73 z"},"p":{"x_min":0,"x_max":539,"ha":539,"o":"m -6 428 q 126 449 245 516 l 245 461 q 269 487 304 502 q 339 516 370 516 q 481 516 509 342 q 512 325 513 299 q 514 273 514 269 q 514 131 460 56 q 411 -12 332 -12 q 302 -12 266 1 l 252 6 l 252 -110 q 252 -142 259 -154 q 266 -167 293 -183 l 302 -187 l -5 -187 l 4 -183 q 34 -166 42 -154 q 50 -141 50 -110 l 50 359 l 50 368 q 46 396 37 408 q 28 420 6 426 z m 247 57 q 259 48 269 48 q 289 48 302 85 q 307 100 312 142 q 316 183 316 237 q 316 308 306 366 q 296 425 270 425 q 260 425 249 419 l 243 415 l 243 62 z"},"X":{"x_min":0,"x_max":633,"ha":633,"o":"m 0 720 l 321 720 l 313 715 q 289 698 289 683 q 289 672 303 642 l 366 512 l 449 642 q 467 671 467 683 q 467 698 435 715 l 425 720 l 595 720 l 587 715 l 575 708 q 557 696 546 684 q 534 671 516 643 l 395 451 l 578 76 q 592 47 601 35 q 610 23 624 11 l 632 5 l 640 0 l 323 0 l 331 5 q 350 18 350 33 q 350 47 335 77 l 257 238 l 157 76 q 139 49 139 35 q 139 19 174 4 l 185 0 l 15 0 l 34 11 q 50 22 60 34 q 71 45 90 76 l 230 293 l 60 642 q 51 660 42 676 q 32 692 15 707 l 6 715 z"},"*":{"x_min":0,"x_max":420,"ha":420,"o":"m 92 624 l 154 596 l 160 606 l 103 646 q 81 663 86 688 q 90 712 108 728 q 126 743 149 743 q 161 743 172 739 q 199 727 199 701 l 203 632 l 217 632 l 223 701 q 223 728 249 737 q 262 742 273 742 q 295 742 313 726 q 331 711 335 688 q 340 661 318 646 l 261 606 l 267 596 l 330 624 q 338 627 347 627 q 367 627 382 612 q 398 596 398 571 q 398 541 376 521 q 363 511 347 511 q 337 511 329 515 l 267 543 l 261 534 l 317 493 q 335 481 335 457 q 335 426 305 408 q 289 398 271 398 q 258 398 249 402 q 222 413 222 439 l 217 508 l 203 507 l 198 439 q 198 427 190 417 q 183 407 172 402 q 162 398 148 398 q 130 398 116 407 q 101 416 93 430 q 85 443 85 456 q 85 479 103 492 l 159 534 l 154 544 l 91 516 q 82 513 73 513 q 57 513 46 522 q 34 531 28 544 q 22 557 22 571 q 22 601 46 619 q 58 628 74 628 q 84 628 92 624 z"},"Y":{"x_min":0,"x_max":599,"ha":599,"o":"m -22 720 l 309 720 l 300 716 q 262 696 262 677 q 262 665 271 642 l 388 350 l 500 642 q 510 666 510 680 q 510 698 480 715 l 472 720 l 621 720 l 614 715 l 603 707 q 586 695 578 684 q 570 672 559 642 l 411 250 l 411 76 q 411 42 418 30 q 425 17 452 4 l 461 0 l 142 0 l 152 4 q 177 17 185 30 q 193 44 193 76 l 193 250 l 37 642 q 25 673 18 683 q 11 693 -5 707 l -16 715 z"},"c":{"x_min":0,"x_max":464,"ha":464,"o":"m 448 474 l 364 326 l 363 335 l 362 346 q 356 389 332 425 q 309 463 277 463 q 254 463 239 443 q 209 402 209 280 q 209 252 214 230 q 219 207 229 185 q 261 114 333 114 q 372 114 407 140 q 430 157 451 183 l 460 194 l 457 178 q 438 94 390 48 q 360 17 320 1 q 281 -15 241 -15 q 184 -15 134 14 q 85 43 55 101 q 25 159 25 243 q 25 333 72 400 q 118 467 200 499 q 251 518 302 518 q 344 518 382 506 q 420 495 448 474 z"},"!":{"x_min":0,"x_max":317,"ha":317,"o":"m 43 73 q 43 119 66 141 q 90 163 146 163 q 167 163 180 162 q 192 161 218 157 q 244 153 260 130 q 275 108 275 76 q 275 53 265 28 q 255 2 234 -6 q 213 -14 158 -14 q 99 -14 74 10 q 60 24 43 73 z m 49 618 q 47 625 47 639 q 47 680 77 707 q 107 734 157 734 q 208 734 238 707 q 268 680 268 639 q 268 632 266 618 l 177 195 l 138 195 z"},"/":{"x_min":0,"x_max":409,"ha":409,"o":"m 22 -72 l 292 790 l 387 790 l 118 -72 z"},"[":{"x_min":0,"x_max":320,"ha":320,"o":"m 58 -93 l 58 814 l 298 814 l 298 727 l 228 727 l 228 -7 l 298 -7 l 298 -93 z"},"6":{"x_min":0,"x_max":544,"ha":544,"o":"m 389 731 l 370 714 q 360 704 356 700 q 344 688 333 674 q 298 634 277 596 q 256 557 248 519 l 243 493 q 275 517 328 517 q 360 517 392 499 q 425 481 459 444 q 518 377 518 252 q 518 127 454 56 q 390 -15 286 -15 q 249 -15 210 -6 q 131 13 81 89 q 28 170 28 291 q 28 317 31 344 q 38 410 68 472 q 97 533 150 589 q 187 629 237 660 q 287 691 365 722 q 377 726 389 731 z m 251 68 q 259 57 274 57 q 280 57 288 60 q 298 66 302 84 q 307 101 307 141 l 308 370 q 308 397 306 412 q 303 426 298 438 q 292 451 275 451 q 268 451 258 444 q 248 436 244 415 q 239 394 239 368 l 239 136 q 239 107 242 94 q 244 82 251 68 z"},"r":{"x_min":0,"x_max":426,"ha":426,"o":"m -6 428 l 63 440 q 162 464 253 516 l 253 449 q 260 457 273 469 q 279 474 288 481 q 332 513 371 513 q 425 513 442 461 q 448 443 448 426 q 448 379 413 357 q 390 343 372 343 q 332 343 314 398 q 312 405 301 408 q 285 414 264 396 q 257 390 252 381 l 252 75 q 252 43 259 30 q 266 17 292 4 l 301 0 l -4 0 l 6 4 q 33 17 42 31 q 50 45 50 76 l 50 359 l 50 368 q 46 395 37 408 q 28 421 6 426 z"},"2":{"x_min":0,"x_max":544,"ha":544,"o":"m 25 510 l 30 523 q 51 584 72 617 q 94 650 126 673 q 167 703 211 718 q 255 733 296 733 q 382 733 433 680 q 461 651 474 624 q 488 596 488 565 q 488 520 458 465 q 428 410 363 333 l 309 271 l 235 186 l 230 180 l 220 167 l 331 167 l 379 168 q 429 168 458 182 q 486 196 509 229 l 514 236 l 445 0 l 43 0 l 49 9 l 56 17 l 104 87 q 158 169 194 238 q 229 308 249 371 l 253 383 l 263 419 l 269 439 q 276 463 279 480 q 282 498 282 508 q 282 517 281 523 q 277 562 250 586 q 224 610 186 610 q 171 610 153 605 q 122 595 107 584 q 92 573 32 516 z"},"{":{"x_min":0,"x_max":367,"ha":367,"o":"m 29 360 q 58 360 77 380 q 96 400 96 432 l 96 742 q 96 790 122 816 q 148 842 195 842 l 338 842 l 338 756 l 325 756 q 295 756 282 745 q 269 734 269 708 l 269 454 q 269 390 207 366 l 180 360 l 207 354 q 235 343 252 319 q 269 295 269 266 l 269 12 q 269 -36 325 -36 l 338 -36 l 338 -122 l 195 -122 q 148 -122 122 -96 q 96 -70 96 -22 l 96 288 q 96 318 77 339 q 58 360 29 360 z"},"9":{"x_min":0,"x_max":544,"ha":544,"o":"m 156 -14 q 172 1 174 2 q 190 17 202 32 q 246 82 268 120 q 289 157 297 195 l 302 226 l 294 220 q 263 200 227 200 q 165 200 111 248 q 52 300 36 382 q 26 429 26 474 q 26 577 79 644 q 132 711 220 728 q 248 733 269 733 q 375 733 446 650 q 516 567 516 429 q 516 418 515 404 q 514 391 514 383 q 503 256 418 154 q 332 51 186 -3 z m 238 342 q 238 298 252 278 q 258 269 271 269 q 276 269 284 273 q 291 277 296 294 q 302 311 302 347 l 303 592 q 303 616 301 626 q 299 637 293 648 q 287 658 271 658 q 265 658 258 654 q 251 650 246 635 q 240 620 240 590 z"}," ":{"x_min":0,"x_max":290,"ha":290,"o":""},"I":{"x_min":0,"x_max":332,"ha":332,"o":"m 6 0 l 16 4 q 42 17 50 30 q 58 43 58 76 l 58 643 q 58 675 51 688 q 44 700 15 716 l 7 720 l 326 720 l 318 716 q 290 699 282 686 q 274 673 274 642 l 274 76 q 274 42 281 30 q 288 17 315 4 l 325 0 z"},"H":{"x_min":0,"x_max":672,"ha":672,"o":"m 6 0 l 16 4 q 42 16 50 30 q 57 43 57 75 l 57 642 q 57 674 50 686 q 43 699 14 716 l 6 720 l 326 720 l 318 716 q 287 697 280 686 q 273 674 273 641 l 273 503 l 400 503 l 400 641 q 400 674 393 686 q 386 697 354 716 l 346 720 l 666 720 l 658 715 q 630 699 623 687 q 616 675 616 642 l 616 75 q 616 42 624 29 q 631 16 657 4 l 666 0 l 347 0 l 356 4 q 384 18 392 31 q 400 44 400 77 l 400 445 l 273 445 l 273 77 q 273 43 280 30 q 287 18 316 4 l 326 0 z"},"4":{"x_min":0,"x_max":544,"ha":544,"o":"m 1 170 l 445 736 l 445 251 l 522 251 l 522 169 l 444 169 l 444 76 q 444 44 452 30 q 460 17 487 4 l 497 0 l 177 0 l 187 4 q 213 17 221 30 q 229 43 229 76 l 229 170 z m 240 243 l 240 413 l 108 243 z"},"~":{"x_min":0,"x_max":519,"ha":519,"o":"m 29 265 l 30 293 q 38 377 74 420 q 109 463 165 463 q 192 463 229 450 l 314 418 l 334 411 q 343 407 352 407 q 370 407 380 438 l 384 455 l 385 464 l 490 464 l 488 437 q 481 353 446 310 q 411 267 354 267 q 336 267 320 270 q 305 274 289 280 l 205 311 l 184 319 q 172 323 168 323 q 149 323 139 292 q 135 282 135 275 l 134 265 z"},"D":{"x_min":0,"x_max":677,"ha":677,"o":"m 6 718 l 101 723 l 216 729 q 398 729 496 674 q 595 618 629 494 q 655 398 655 323 q 655 157 540 72 q 424 -12 212 -12 l 46 -2 l 7 1 l 17 5 q 43 17 50 30 q 58 44 58 76 l 58 642 q 58 674 50 688 q 43 701 16 714 z m 281 52 q 302 45 322 45 q 360 45 387 75 q 408 98 421 177 q 434 256 434 387 q 434 548 406 609 q 379 670 321 670 q 312 669 308 669 l 295 667 l 274 663 l 274 55 z"},"^":{"x_min":0,"x_max":525,"ha":525,"o":"m 29 149 l 262 571 l 496 149 l 332 149 l 262 295 l 193 149 z"},"0":{"x_min":0,"x_max":545,"ha":545,"o":"m 30 360 q 30 493 86 599 q 147 715 241 729 q 249 729 258 730 q 268 731 273 731 q 278 731 286 730 q 294 730 304 729 q 405 713 458 627 q 515 533 515 360 q 515 186 460 96 q 406 6 304 -9 q 296 -11 287 -11 q 278 -11 273 -11 q 265 -11 261 -11 q 255 -11 241 -9 q 148 5 87 120 q 30 228 30 360 z m 241 186 q 241 87 246 64 q 251 42 273 42 q 293 42 298 66 q 304 90 304 186 l 304 534 q 304 633 299 656 q 294 678 273 678 q 252 678 246 654 q 241 631 241 534 z"},"F":{"x_min":0,"x_max":564,"ha":564,"o":"m 4 720 l 421 720 q 458 720 468 722 q 477 725 492 737 q 512 754 519 774 l 571 545 l 567 550 l 556 564 q 512 617 474 639 q 435 661 381 661 q 323 661 298 646 q 274 632 274 597 l 274 394 l 399 394 q 486 394 503 487 l 505 497 l 506 502 l 506 239 l 504 246 l 500 257 q 485 304 464 320 q 443 336 400 336 l 274 336 l 274 76 q 274 43 282 30 q 290 17 317 4 l 326 0 l 6 0 l 15 4 q 42 17 50 30 q 58 43 58 76 l 58 642 q 58 674 50 686 q 43 699 13 716 z"},"`":{"x_min":0,"x_max":292,"ha":292,"o":"m 9 706 l 202 706 l 202 548 z"},"k":{"x_min":0,"x_max":590,"ha":590,"o":"m -9 646 q 58 646 124 669 q 190 692 251 734 l 251 275 l 384 428 q 411 460 411 474 q 411 487 383 499 l 372 503 l 527 503 l 519 498 l 512 493 q 495 480 480 465 q 466 450 446 428 l 388 361 l 575 76 q 597 44 605 34 q 613 24 629 11 l 637 5 l 644 0 l 313 0 l 323 4 q 354 19 354 35 q 354 47 338 76 l 260 213 l 244 201 l 244 76 q 244 42 252 30 q 260 18 291 4 l 300 0 l -4 0 l 6 4 q 33 17 42 31 q 50 45 50 76 l 50 572 q 50 582 48 590 q 47 599 43 606 q 30 630 18 638 q 7 647 -9 646 z"},"u":{"x_min":0,"x_max":584,"ha":584,"o":"m -6 428 q 78 438 161 471 q 211 491 253 516 l 253 123 l 254 103 q 256 89 278 89 q 288 89 304 96 q 319 102 332 117 l 332 359 l 331 368 q 328 396 318 408 q 309 421 287 426 l 275 428 q 359 438 442 471 q 488 490 533 516 l 533 76 q 533 41 539 29 q 545 17 570 4 l 579 0 l 339 0 l 339 64 l 326 56 l 310 45 q 219 -12 144 -12 q 91 -12 72 8 q 52 29 52 90 l 52 359 l 51 368 q 48 397 38 409 q 29 421 6 426 z"},"]":{"x_min":0,"x_max":320,"ha":320,"o":"m 22 -93 l 22 -7 l 92 -7 l 92 727 l 22 727 l 22 814 l 262 814 l 262 -93 z"},"U":{"x_min":0,"x_max":667,"ha":667,"o":"m 6 720 l 326 720 l 318 716 q 289 699 282 686 q 274 674 274 642 l 274 230 q 274 132 303 86 q 332 40 395 40 q 418 40 447 46 q 512 60 533 94 q 554 128 554 219 l 554 643 q 554 675 547 688 q 540 700 513 716 l 504 720 l 659 720 l 651 715 q 624 699 616 686 q 609 672 609 642 l 609 212 q 609 93 558 42 q 503 -13 374 -13 q 349 -13 324 -13 q 302 -10 291 -9 q 173 3 116 56 q 58 110 58 204 l 58 642 q 58 674 51 686 q 44 697 14 715 z"},"o":{"x_min":0,"x_max":525,"ha":525,"o":"m 25 253 q 25 357 96 436 q 166 516 265 516 q 271 516 280 515 q 288 514 292 514 q 384 503 442 432 q 500 362 500 253 q 500 134 432 62 q 365 -11 262 -11 q 163 -11 94 68 q 25 147 25 253 z m 217 133 q 223 75 232 58 q 240 40 262 40 q 284 40 293 58 q 302 75 308 133 l 308 372 q 302 430 293 448 q 284 465 262 465 q 241 465 232 448 q 223 430 217 372 q 216 365 216 322 q 216 280 216 252 q 216 197 216 169 q 216 141 217 133 z"},"N":{"x_min":0,"x_max":670,"ha":670,"o":"m 6 0 l 16 4 q 42 17 50 32 q 59 46 59 76 l 59 643 q 59 676 52 688 q 45 699 16 716 l 7 720 l 245 720 l 559 355 l 559 642 q 559 675 552 687 q 545 699 516 716 l 507 720 l 662 720 l 653 715 q 628 701 620 687 q 612 673 612 643 l 612 -29 l 116 539 l 116 76 q 116 45 124 31 q 132 17 157 4 l 166 0 z"},"G":{"x_min":0,"x_max":670,"ha":670,"o":"m 611 689 l 529 533 l 527 545 q 519 576 500 605 q 481 634 456 652 q 418 679 380 679 q 345 679 318 658 q 292 638 280 600 q 265 552 256 490 q 247 428 247 362 q 247 338 248 308 q 250 279 254 241 q 267 124 282 88 q 297 51 332 46 q 367 41 388 70 q 409 99 409 164 l 409 428 q 409 462 400 476 q 391 489 361 499 l 350 503 l 670 503 l 659 499 q 634 488 626 474 q 617 459 617 428 l 617 147 q 617 108 625 90 q 633 73 653 65 l 657 64 l 661 62 l 654 57 l 649 55 q 594 22 516 4 q 438 -14 370 -14 q 211 -14 120 80 q 29 174 29 345 q 29 733 441 733 q 481 733 518 723 q 556 713 596 696 l 603 693 z"},"q":{"x_min":0,"x_max":547,"ha":547,"o":"m 403 437 l 498 516 l 498 -110 q 498 -142 505 -154 q 512 -166 539 -183 l 548 -187 l 242 -187 l 251 -183 q 281 -166 288 -154 q 296 -142 296 -110 l 296 53 q 285 43 274 31 q 263 19 260 17 q 219 -15 173 -15 q 132 -15 100 10 q 68 36 50 86 q 25 155 25 239 q 25 308 42 355 q 58 402 92 438 q 126 475 169 494 q 212 514 255 514 q 346 514 397 445 z m 297 444 q 292 468 271 464 q 247 459 236 420 q 225 382 225 275 q 225 196 232 154 q 240 112 252 99 q 263 86 272 86 q 277 86 286 89 l 300 95 l 300 410 z"},"d":{"x_min":0,"x_max":539,"ha":539,"o":"m 287 494 l 287 572 q 287 582 286 590 q 284 599 280 606 q 267 630 256 638 q 244 647 228 646 q 268 646 311 656 q 354 667 399 686 q 444 704 488 734 l 488 75 q 488 43 496 30 q 505 16 530 4 l 541 0 l 286 0 l 286 43 q 271 23 249 11 q 207 -13 168 -13 q 120 -13 84 22 q 49 58 34 129 q 29 152 27 186 q 25 220 25 251 q 25 380 81 453 q 131 518 204 518 q 213 517 217 517 q 244 514 262 507 q 274 500 287 494 z m 283 447 q 272 455 263 455 q 241 455 229 418 q 224 400 221 384 q 218 368 218 343 q 218 223 224 163 q 229 103 240 90 q 251 77 263 77 q 274 77 284 87 l 289 91 l 289 442 z"},"1":{"x_min":0,"x_max":543,"ha":543,"o":"m 108 656 l 192 674 l 264 693 l 329 710 l 337 712 l 395 733 l 395 75 q 395 44 403 30 q 411 17 436 4 l 446 0 l 128 0 l 138 4 q 164 17 172 30 q 179 43 179 76 l 179 549 l 178 566 q 178 597 170 615 q 161 633 144 644 q 127 656 108 656 z"},"5":{"x_min":0,"x_max":544,"ha":544,"o":"m 104 329 l 129 720 l 472 720 l 423 567 l 176 567 l 172 488 l 184 489 q 195 489 208 490 q 221 491 227 491 q 352 491 424 426 q 497 362 497 258 q 497 214 484 169 q 461 87 391 36 q 321 -15 230 -15 q 203 -15 173 -9 q 120 1 86 21 q 52 41 34 70 q 15 98 15 130 q 15 165 34 194 q 54 224 87 236 q 105 243 124 243 q 159 243 184 222 q 209 200 214 165 q 215 161 215 158 q 215 154 215 151 q 215 140 214 135 q 213 130 207 115 l 206 111 l 201 95 q 199 83 199 79 q 199 74 199 70 q 201 66 201 65 q 209 41 235 41 q 243 41 251 44 q 266 51 280 72 q 294 93 304 131 q 307 141 309 157 q 311 173 311 183 q 311 250 266 292 q 222 333 150 333 q 134 333 125 332 l 112 330 z"}}}
